<svg xmlns="http://www.w3.org/2000/svg" height="48" viewBox="0 -960 960 960" width="48" fill="#e1a026"><path d="M526-480q-19.75 0-32.875-13.125T480-526v-240q0-18.75 13.175-32.375 13.176-13.625 33-13.625Q545-812 558.5-798.375 572-784.75 572-766v130l233-232q12-13 31.5-13t31.5 13q13 12 13 31.5T868-805L636-572h130q18.75 0 32.375 13.675Q812-544.649 812-525.825 812-506 798.375-493 784.75-480 766-480H526ZM92-92q-13-12-13-31.5T92-155l233-234H195q-19.75 0-32.875-13.175-13.125-13.176-13.125-33Q149-454 162.125-467T195-480h239q19.75 0 32.875 13.125T480-434v239q0 19.75-13.175 32.875-13.176 13.125-32 13.125Q415-149 402-162.125 389-175.25 389-195v-130L155-92q-12 13-31.5 13T92-92Z"/></svg>