<svg xmlns="http://www.w3.org/2000/svg" height="48" viewBox="0 -960 960 960" width="48" fill="#e1a026"><path d="M151-105q-20.75 0-33.375-12.625T105-151v-239q0-18.8 13.358-32.4 13.358-13.6 31.8-13.6t32.142 13.6Q196-408.8 196-390v129l504-504H570q-18.375 0-31.688-13.358Q525-791.716 525-810.158t13.312-32.142Q551.625-856 570-856h240q20.2 0 33.1 12.9Q856-830.2 856-810v240q0 18.375-13.65 31.688Q828.699-525 809.825-525q-18.45 0-31.637-13.312Q765-551.625 765-570v-130L261-196h129q18.8 0 32.4 13.65 13.6 13.651 13.6 32.525 0 18.45-13.6 31.637Q408.8-105 390-105H151Z"/></svg>